# xmcd
#
# Track frame offsets:
#	150
#	13747
#	26977
#	39992
#	50307
#	60165
#	76555
#	86070
#	98377
#	111650
#	128712
#	143902
#	156595
#	167302
#	181387
#	195362
#	206200
#	216865
#	231765
#	244952
#	264340
#	275397
#	288870
#	300630
#	316130
#	332082
#
# Disc length: 4573 seconds
#
# Revision: 2
# Processed by: cddbd v1.5.1PL2 Copyright (c) Steve Scherf et al.
# Submitted via: dBpowerAMP V4.0
#
DISCID=6211db1a
DTITLE=Tião Carreiro e Pardinho - Dose Dupla Vol.3
DYEAR=1995
DGENRE=Sertanejo
TTITLE0=O mineiro e o italiano
TTITLE1=Porta fechada
TTITLE2=Quam não ama não esquece
TTITLE3=Linha de frente
TTITLE4=Cantar da siriema
TTITLE5=Ana Rosa
TTITLE6=Jerimu
TTITLE7=Minha Prece
TTITLE8=Geada do Paraná
TTITLE9=Catimbau
TTITLE10=Punhal da falsidade
TTITLE11=Prece de amor
TTITLE12=Ondas de amor
TTITLE13=Fujo de ti
TTITLE14=Mulher amada
TTITLE15=Rio de pranto
TTITLE16=A saudade continua
TTITLE17=Até quinta-feira
TTITLE18=O cigano
TTITLE19=Golpe de mestre
TTITLE20=A ferro e fogo
TTITLE21=Viúva rica
TTITLE22=Vaqueiro do norte
TTITLE23=Ato de bravura
TTITLE24=Confiança
TTITLE25=Mentira tem perna curta
EXTD=Vinny
EXTT0=
EXTT1=
EXTT2=
EXTT3=
EXTT4=
EXTT5=
EXTT6=
EXTT7=
EXTT8=
EXTT9=
EXTT10=
EXTT11=
EXTT12=
EXTT13=
EXTT14=
EXTT15=
EXTT16=
EXTT17=
EXTT18=
EXTT19=
EXTT20=
EXTT21=
EXTT22=
EXTT23=
EXTT24=
EXTT25=
PLAYORDER=
